<svg width="12" height="12" viewBox="0 0 12 12" fill="none" xmlns="http://www.w3.org/2000/svg">
<path d="M6 1.125C5.03582 1.125 4.09329 1.41091 3.2916 1.94659C2.48991 2.48226 1.86507 3.24363 1.49609 4.13442C1.12711 5.02521 1.03057 6.00541 1.21867 6.95107C1.40678 7.89672 1.87108 8.76537 2.55286 9.44715C3.23464 10.1289 4.10328 10.5932 5.04894 10.7813C5.99459 10.9694 6.97479 10.8729 7.86558 10.5039C8.75637 10.1349 9.51774 9.51009 10.0534 8.70841C10.5891 7.90672 10.875 6.96418 10.875 6C10.8735 4.70752 10.3594 3.46839 9.44553 2.55447C8.53161 1.64055 7.29248 1.12646 6 1.125ZM6 10.125C5.18415 10.125 4.38663 9.88307 3.70827 9.42981C3.02992 8.97655 2.50121 8.33231 2.189 7.57857C1.87679 6.82482 1.7951 5.99542 1.95426 5.19525C2.11343 4.39508 2.50629 3.66008 3.08319 3.08318C3.66008 2.50629 4.39508 2.11342 5.19525 1.95426C5.99542 1.7951 6.82482 1.87679 7.57857 2.189C8.33231 2.50121 8.97655 3.02992 9.42981 3.70827C9.88307 4.38663 10.125 5.18415 10.125 6C10.1238 7.09364 9.68876 8.14213 8.91544 8.91545C8.14213 9.68876 7.09364 10.1238 6 10.125ZM4.50014 5.99977C4.50017 6.31459 4.59925 6.62142 4.78335 6.8768C4.96744 7.13218 5.22721 7.32318 5.52588 7.42273C5.82454 7.52228 6.14696 7.52534 6.44746 7.43149C6.74796 7.33763 7.01132 7.15161 7.20023 6.89977C7.25998 6.82026 7.34887 6.76774 7.44734 6.75377C7.4961 6.74685 7.54574 6.7496 7.59343 6.76187C7.64112 6.77413 7.68594 6.79567 7.7253 6.82526C7.76467 6.85484 7.79783 6.89189 7.82288 6.93429C7.84793 6.97669 7.86439 7.02361 7.8713 7.07236C7.87822 7.12112 7.87547 7.17076 7.8632 7.21846C7.85094 7.26615 7.8294 7.31096 7.79981 7.35033C7.51639 7.72798 7.12134 8.0069 6.67061 8.14758C6.21988 8.28826 5.73631 8.28358 5.28839 8.13419C4.84047 7.98481 4.45089 7.69829 4.17484 7.31522C3.89878 6.93215 3.75024 6.47194 3.75024 5.99977C3.75024 5.52759 3.89878 5.06738 4.17484 4.68431C4.45089 4.30124 4.84047 4.01472 5.28839 3.86534C5.73631 3.71595 6.21988 3.71127 6.67061 3.85195C7.12134 3.99264 7.51639 4.27155 7.79981 4.6492C7.858 4.7288 7.8825 4.82812 7.868 4.92564C7.8535 5.02317 7.80118 5.11106 7.72235 5.1703C7.64353 5.22953 7.54455 5.25533 7.44684 5.24212C7.34913 5.22892 7.26055 5.17775 7.20028 5.09972C7.01137 4.84786 6.74801 4.66181 6.44749 4.56795C6.14698 4.47408 5.82454 4.47714 5.52586 4.5767C5.22718 4.67626 4.9674 4.86727 4.78331 5.12267C4.59922 5.37808 4.50015 5.68493 4.50014 5.99977Z" fill="#898989"/>
</svg>
